<?xml version="1.0" encoding="utf-8"?>
<!-- Generator: Adobe Illustrator 18.0.0, SVG Export Plug-In . SVG Version: 6.00 Build 0)  -->
<!DOCTYPE svg PUBLIC "-//W3C//DTD SVG 1.1//EN" "http://www.w3.org/Graphics/SVG/1.1/DTD/svg11.dtd">
<svg version="1.1" id="Layer_1" xmlns="http://www.w3.org/2000/svg" xmlns:xlink="http://www.w3.org/1999/xlink" x="0px" y="0px"
	 viewBox="0 72 792 468" enable-background="new 0 72 792 468" xml:space="preserve">
<g>
	<g>
		<path fill="#1E1417" d="M432,217.6c-10.7,125.1,24.6,258.7,150.7,310c108,43.8,217-44.9,208.4-155
			c-8.6-116.5-115.4-240.5-227.7-266.1c-149.6-34.2-156,136.8-152.8,239.4c1.1,17.1,27.8,17.1,26.7,0c-2.1-44.9-2.1-90.9,6.4-135.7
			c13.9-74.8,77-89.8,142.2-69.5c88.7,27.8,153.9,132.5,176.4,218c33.1,130.4-115.4,181.7-208.4,125.1
			c-88.7-54.5-102.6-172.1-95.1-266.1C460.9,200.5,434.1,200.5,432,217.6L432,217.6z"/>
	</g>
</g>
<g>
	<g>
		<path fill="#1E1417" d="M430.9,326.6c-53.4-13.9-58.8,69.5-43.8,101.5c8.6,20.3,25.7,35.3,49.2,34.2c21.4-1.1,36.3-20.3,36.3-39.5
			c0-17.1-26.7-17.1-26.7,0c-1.1,10.7-7.5,15-17.1,12.8c-10.7-2.1-16-15-18.2-24.6c-3.2-9.6-5.3-64.1,15-58.8
			C440.6,356.6,448,330.9,430.9,326.6L430.9,326.6z"/>
	</g>
</g>
<g>
	<g>
		<path fill="#1E1417" d="M391.4,379c-121.8,0-244.8,0-366.6,0c-4.3,0-9.6,2.1-11.8,6.4c-32.1,64.1-1.1,120.8,70.5,124
			c60.9,2.1,125.1-6.4,184.9-10.7c49.2-4.3,96.2-15,141.1-37.4c15-7.5,2.1-31-13.9-23.5c-56.6,28.9-117.6,33.1-179.6,37.4
			c-51.3,3.2-202,33.1-188.1-55.6c4.3-28.9,156-13.9,180.6-13.9c60.9,0,121.8,0,183.8,0C408.5,405.7,408.5,379,391.4,379L391.4,379z
			"/>
	</g>
</g>
<g>
	<g>
		<path fill="#1E1417" d="M758,435.7c-64.1,6.4-187,34.2-222.3-34.2c-37.4-70.5-36.3-161.4-5.3-233c56.6-131.5,156,35.3,178.5,97.3
			c26.7,71.6,25.7,150.7,6.4,223.4c-4.3,17.1,21.4,23.5,25.7,7.5c26.7-97.3,17.1-195.6-26.7-287.5
			c-32.1-67.3-105.8-158.2-180.6-90.9c-71.6,63.1-58.8,199.9-28.9,279c12.8,33.1,28.9,62,63.1,71.6c54.5,16,134.7,0,190.3-5.3
			C775.1,460.2,775.1,433.5,758,435.7L758,435.7z"/>
	</g>
</g>
</svg>
